<?xml version="1.0" standalone="no"?>
<!DOCTYPE svg PUBLIC "-//W3C//DTD SVG 20010904//EN"
 "http://www.w3.org/TR/2001/REC-SVG-20010904/DTD/svg10.dtd">
<svg version="1.0" xmlns="http://www.w3.org/2000/svg"
 width="1195.000000pt" height="1137.000000pt" viewBox="0 0 1195.000000 1137.000000"
 preserveAspectRatio="xMidYMid meet">

<g transform="translate(0.000000,1137.000000) scale(0.100000,-0.100000)"
fill="#000000" stroke="none">
<path d="M5193 10641 c-93 -27 -219 -115 -249 -173 -9 -17 -16 -53 -16 -80 1
-115 61 -227 183 -342 l70 -67 34 -167 c27 -132 43 -184 75 -249 75 -152 192
-247 341 -280 l77 -16 4 -116 c4 -107 2 -120 -21 -170 -49 -107 -39 -280 31
-499 16 -52 28 -95 26 -95 -131 -64 -201 -125 -265 -228 -20 -33 -38 -59 -40
-59 -3 0 -40 27 -84 59 -126 95 -279 173 -398 203 -25 6 -64 26 -86 43 -148
117 -365 192 -624 216 -214 20 -488 -8 -781 -80 -63 -16 -144 -34 -179 -40
-238 -45 -435 -265 -551 -616 -27 -80 -51 -128 -125 -240 -162 -246 -694
-1152 -726 -1234 -48 -127 -45 -228 8 -336 63 -129 258 -269 470 -339 l53 -18
-84 -92 c-46 -51 -118 -139 -160 -195 l-76 -102 -87 -2 c-66 -2 -100 -8 -138
-25 -60 -27 -137 -100 -160 -151 -14 -31 -26 -41 -68 -56 -29 -10 -96 -39
-150 -65 -369 -181 -651 -510 -787 -919 -37 -111 -80 -289 -95 -396 -6 -40
-16 -59 -56 -103 -107 -117 -196 -300 -258 -528 -50 -187 -101 -415 -112 -509
-26 -208 23 -419 135 -586 117 -175 345 -326 588 -390 45 -12 128 -43 183 -69
174 -83 379 -146 548 -169 257 -35 531 14 740 133 l77 44 56 -30 c224 -122
529 -74 807 126 89 64 102 66 217 36 41 -11 116 -22 165 -26 71 -5 102 -13
145 -35 67 -35 168 -76 232 -93 26 -7 63 -27 83 -44 73 -65 167 -97 319 -108
87 -6 105 -10 138 -34 21 -15 74 -37 118 -49 70 -19 113 -22 367 -26 297 -5
360 0 478 36 33 10 100 26 148 35 67 13 103 26 147 55 91 59 170 180 170 261
0 65 27 109 77 127 l42 15 49 -45 c76 -68 114 -93 228 -150 100 -51 108 -53
199 -57 108 -5 155 5 258 54 l69 32 56 -26 c45 -21 75 -27 147 -30 99 -4 126
6 241 84 l51 35 34 -19 c49 -29 132 -45 185 -37 36 5 54 2 97 -19 143 -70 318
-39 446 78 25 23 62 51 81 62 32 18 39 19 80 6 61 -18 177 -11 226 15 35 18
42 18 97 6 51 -12 65 -12 115 3 59 17 74 18 177 13 33 -2 78 2 101 9 51 15
113 68 139 118 10 22 36 58 57 81 21 24 38 47 38 53 0 18 44 11 125 -21 90
-34 293 -89 332 -89 14 0 52 -18 85 -40 33 -22 83 -47 111 -55 108 -32 243 -9
343 59 49 33 61 36 210 54 100 12 191 18 246 14 138 -7 238 36 316 138 32 41
45 50 97 65 33 9 97 28 142 42 80 26 82 27 93 67 6 23 14 104 17 181 5 133 7
142 33 175 42 54 134 199 164 258 191 380 238 867 125 1312 -16 63 -29 131
-29 151 0 87 -52 188 -120 233 -160 106 -409 47 -460 -109 -24 -72 3 -170 71
-256 34 -43 91 -157 112 -224 42 -132 48 -302 18 -477 -19 -110 -69 -288 -81
-288 -3 0 -22 37 -41 82 -44 105 -157 313 -246 453 l-70 109 57 56 c63 61 112
147 135 237 40 154 -7 374 -110 507 l-37 49 16 61 c42 161 45 310 7 457 -18
69 -111 293 -131 312 -8 10 -160 -96 -254 -177 -69 -59 -169 -181 -199 -243
-18 -37 -25 -43 -53 -43 -26 0 -38 9 -72 53 -57 73 -198 208 -256 245 -27 17
-92 46 -145 63 -53 17 -99 33 -102 35 -3 2 -1 29 5 61 9 46 28 83 95 183 46
69 99 159 118 200 19 41 41 86 49 100 84 143 84 297 -1 427 -20 30 -43 85 -55
134 -27 105 -60 169 -118 231 -43 46 -124 98 -153 98 -19 0 -340 234 -379 276
-54 58 -107 92 -178 114 -81 25 -139 25 -231 0 l-73 -21 -33 30 c-100 88 -272
146 -466 158 l-96 6 -2 48 c-4 200 -147 423 -367 571 -44 30 -62 47 -57 58 3
8 8 56 10 105 l5 90 99 200 c148 300 236 525 246 628 5 59 0 87 -42 242 -4 16
5 25 47 45 67 33 204 162 258 245 24 37 49 65 59 65 29 0 166 97 252 178 152
143 183 288 82 388 -47 47 -96 68 -214 92 -56 11 -109 28 -127 40 -151 108
-466 125 -685 37 -102 -41 -169 -88 -281 -197 l-109 -106 -96 25 c-196 52
-473 29 -742 -61 l-95 -32 -37 26 c-20 14 -64 41 -98 60 -45 25 -81 57 -127
113 -107 129 -198 185 -373 232 -120 31 -203 44 -364 56 -254 19 -257 19 -322
0z m2378 -1440 c23 -29 25 -100 4 -141 -9 -16 -29 -36 -45 -45 -62 -32 -146
-11 -175 45 -20 38 -19 103 1 142 l16 30 90 -4 c80 -4 93 -7 109 -27z m-1000
-11 c25 -14 49 -62 49 -100 0 -71 -53 -120 -130 -120 -78 0 -130 49 -130 123
0 33 2 35 83 70 92 39 101 41 128 27z m-2296 -790 c190 -22 346 -79 472 -174
46 -35 87 -55 160 -77 348 -108 605 -380 738 -782 18 -56 52 -147 75 -202 83
-199 120 -408 100 -556 -20 -148 -84 -268 -143 -269 -10 0 -48 28 -83 62 -49
46 -75 64 -111 73 -41 10 -56 21 -98 74 -134 165 -222 375 -260 622 l-14 94 4
-155 c7 -282 72 -503 196 -667 29 -39 38 -59 34 -76 -4 -15 8 -59 33 -123 52
-132 75 -224 76 -309 1 -60 -3 -75 -26 -110 -51 -75 -51 -78 71 -317 61 -119
111 -224 111 -233 0 -8 -6 -15 -12 -15 -23 0 -122 -50 -148 -74 -17 -16 -41
-25 -76 -28 -34 -3 -85 -21 -149 -52 -128 -62 -227 -158 -309 -298 -31 -53
-63 -113 -71 -132 -12 -28 -26 -40 -66 -58 -62 -26 -141 -92 -203 -169 -28
-35 -67 -69 -103 -89 -74 -41 -133 -98 -189 -182 -46 -68 -158 -294 -170 -342
-3 -14 -17 -52 -29 -83 l-24 -58 -95 -16 c-164 -29 -271 -74 -386 -165 -71
-55 -179 -197 -220 -289 -42 -93 -100 -251 -100 -274 0 -10 -7 -24 -16 -32
-51 -42 -133 -277 -134 -381 0 -21 -3 -38 -6 -38 -3 0 -38 11 -77 25 -40 13
-91 29 -114 35 l-41 10 43 78 c87 153 153 362 175 549 10 87 10 105 -4 131 -8
16 -18 49 -22 73 -4 24 -18 65 -31 91 -23 44 -24 52 -17 165 8 144 -2 198 -56
308 -55 111 -120 191 -162 200 -25 6 -65 40 -159 135 -130 133 -163 156 -284
197 -152 51 -371 67 -535 39 l-75 -13 95 -2 c149 -2 265 -37 382 -115 74 -49
309 -288 359 -366 23 -36 51 -78 62 -94 24 -35 67 -170 67 -213 0 -18 -7 -53
-16 -79 -18 -54 -12 -149 16 -234 27 -84 25 -189 -7 -285 -14 -44 -34 -92 -44
-106 -54 -77 -189 -392 -189 -441 0 -10 -6 -34 -14 -52 l-14 -34 77 -12 c191
-30 452 -106 553 -161 39 -22 44 -29 51 -74 8 -50 52 -230 63 -258 4 -11 -6
-9 -42 9 -32 16 -64 24 -98 24 l-51 -1 30 -16 c78 -41 141 -134 133 -199 -2
-23 -14 -36 -58 -61 -64 -39 -80 -41 -80 -11 0 37 -41 109 -74 129 -46 28 -59
23 -25 -10 24 -24 29 -38 29 -76 0 -25 -6 -61 -14 -80 -13 -29 -20 -34 -61
-41 -124 -18 -221 6 -319 79 l-43 32 1 75 c0 57 -5 84 -21 115 -74 142 -312
252 -679 315 -102 18 -391 50 -445 50 -10 0 -39 32 -73 83 -30 45 -85 117
-121 160 -63 75 -66 80 -56 109 25 72 9 183 -43 293 -18 39 -39 99 -45 135
-15 80 -89 237 -165 349 -51 77 -55 88 -47 115 5 17 12 64 15 105 19 224 121
510 253 710 70 106 203 245 304 321 87 64 239 145 347 184 115 41 128 50 148
103 38 101 67 120 167 108 142 -17 150 -13 249 126 149 212 310 379 379 394
40 9 79 43 96 83 14 33 16 34 61 30 29 -3 64 -15 89 -32 37 -25 43 -34 57 -96
45 -201 157 -392 295 -506 137 -114 292 -171 490 -181 97 -5 120 -10 149 -29
65 -45 159 -40 249 12 23 13 44 28 47 32 2 4 -30 7 -72 7 -95 0 -169 31 -234
97 -41 42 -45 44 -78 36 -19 -5 -84 -9 -145 -10 -86 0 -125 4 -176 21 -129 41
-251 145 -323 274 -37 65 -89 212 -101 285 -6 36 -15 50 -58 84 -79 62 -157
94 -350 143 -355 89 -543 191 -592 320 -16 41 -17 53 -6 94 23 89 717 1261
802 1356 10 11 36 75 58 142 92 280 228 461 371 492 25 5 122 28 215 50 302
72 541 94 750 71z m4270 -1137 c96 -32 146 -62 207 -124 68 -71 93 -75 190
-29 110 52 212 35 275 -46 37 -47 394 -303 441 -316 83 -23 130 -91 161 -230
14 -64 27 -95 54 -131 64 -84 71 -159 21 -232 -14 -21 -32 -58 -40 -82 -20
-58 -94 -182 -183 -307 -65 -91 -71 -104 -71 -149 0 -46 -4 -53 -40 -87 -39
-36 -40 -39 -40 -101 0 -62 -1 -64 -47 -111 -52 -53 -65 -57 -106 -29 -78 51
-134 190 -198 486 -4 22 -8 150 -9 285 0 254 -7 325 -40 432 -17 55 -76 155
-86 145 -2 -2 3 -75 12 -163 14 -144 16 -261 11 -619 -2 -111 0 -124 25 -175
14 -30 38 -102 52 -160 45 -185 129 -321 207 -337 22 -4 34 -15 44 -39 7 -18
25 -40 39 -49 14 -9 31 -33 38 -53 18 -54 15 -283 -7 -438 -17 -124 -17 -135
-2 -191 52 -185 21 -334 -98 -463 l-58 -63 7 -81 c4 -45 2 -105 -4 -136 -13
-67 -56 -161 -99 -215 l-32 -39 6 -126 c7 -137 -9 -314 -46 -493 -15 -73 -19
-118 -14 -157 11 -81 7 -175 -10 -247 -22 -93 -19 -114 19 -164 51 -66 55 -91
16 -119 -18 -13 -39 -39 -47 -59 -21 -51 -42 -71 -74 -71 -22 0 -32 7 -44 31
-14 26 -43 141 -45 174 0 6 -7 -1 -15 -15 -8 -15 -14 -53 -15 -92 0 -63 -2
-68 -22 -68 -12 0 -39 -12 -60 -26 -30 -21 -44 -25 -73 -20 -49 10 -66 40 -72
136 -5 60 -9 78 -18 70 -13 -11 -30 -64 -40 -125 -5 -33 -15 -48 -53 -79 -41
-33 -52 -37 -85 -33 -20 3 -57 13 -82 24 -41 17 -45 22 -52 63 -4 25 -8 80 -7
122 0 74 2 81 60 197 33 67 59 121 57 121 -1 0 -19 -11 -40 -25 -52 -36 -85
-30 -98 15 -7 22 -9 147 -7 333 l4 297 54 0 c73 0 118 25 187 100 57 63 66 79
141 242 90 198 208 341 328 399 l63 31 -53 -5 c-94 -8 -192 -65 -307 -181 -55
-56 -129 -144 -165 -196 -111 -165 -210 -242 -269 -211 -12 7 -38 47 -60 94
-105 224 -334 455 -599 603 -56 31 -104 55 -107 53 -2 -3 26 -27 62 -53 250
-186 513 -525 577 -747 29 -99 46 -261 52 -489 6 -215 20 -342 79 -707 7 -40
6 -42 -32 -67 l-40 -27 -53 36 c-69 46 -84 47 -56 2 8 -12 17 -37 21 -55 6
-29 3 -37 -31 -69 -47 -44 -107 -73 -154 -73 -40 0 -108 29 -129 54 -17 20
-10 81 18 160 19 54 19 55 1 46 -28 -15 -78 -79 -106 -137 -14 -28 -32 -54
-41 -57 -27 -11 -73 -6 -103 9 -25 13 -30 22 -30 54 0 23 -12 60 -30 95 l-31
57 20 27 c10 15 33 40 50 56 43 41 42 79 -4 108 -19 13 -35 25 -35 28 0 3 22
20 48 37 26 18 70 53 97 78 47 42 49 44 24 45 -33 0 -88 37 -115 77 -28 43
-51 120 -67 234 -13 85 -23 112 -95 260 -44 90 -107 209 -140 264 -61 100
-150 220 -158 212 -2 -2 28 -71 67 -152 134 -282 224 -510 269 -680 48 -185
48 -184 -1 -254 -38 -53 -44 -69 -47 -125 -2 -35 1 -72 6 -83 6 -11 8 -29 5
-41 -5 -20 -8 -19 -52 17 -25 21 -61 46 -79 55 -18 10 -65 42 -104 72 -38 29
-76 54 -84 54 -20 0 -17 18 12 67 64 110 94 268 76 404 -24 191 -112 360 -262
509 -44 43 -82 89 -85 102 -4 14 35 193 95 443 56 231 110 463 121 515 34 166
132 331 313 528 67 72 76 87 76 120 0 21 -7 48 -16 61 -34 48 -144 76 -207 52
-22 -9 -32 1 -133 126 -242 300 -304 398 -358 571 -86 273 -46 514 112 683 99
106 203 149 362 149 108 0 100 -6 340 239 192 195 247 239 395 311 142 69 197
80 380 76 124 -3 174 -8 220 -23z m1197 -1875 c-5 -55 -17 -68 -26 -27 -4 23
-1 38 10 51 10 10 18 18 18 18 1 0 0 -19 -2 -42z m1087 -130 c54 -164 47 -323
-22 -503 -23 -60 -27 -80 -17 -83 37 -13 106 -92 136 -157 52 -113 66 -210 43
-301 -9 -36 -15 -44 -28 -38 -160 70 -303 102 -381 86 -45 -10 -45 -10 25 -11
83 -2 159 -18 277 -61 l88 -32 -15 -28 c-21 -42 -31 -44 -67 -17 -88 66 -244
129 -312 126 -26 -2 -27 -2 -6 -6 79 -13 254 -86 323 -135 l28 -20 -27 -29
-28 -29 -35 34 c-77 73 -186 142 -251 160 -14 4 7 -10 46 -31 81 -44 156 -98
197 -141 l28 -30 -33 -20 c-18 -11 -45 -24 -61 -27 -15 -4 -30 -11 -32 -16 -3
-4 37 -70 88 -146 251 -368 411 -718 477 -1043 26 -125 38 -346 22 -377 -9
-16 -41 -28 -136 -53 -115 -30 -126 -35 -137 -61 -15 -37 -23 -36 -39 0 -6 16
-23 40 -37 53 -24 21 -26 21 -19 3 4 -11 14 -46 23 -79 20 -79 6 -94 -40 -41
l-34 39 5 -58 5 -58 -74 6 c-41 3 -81 7 -89 7 -8 1 -100 -9 -205 -22 l-189
-23 -51 -38 c-27 -21 -57 -37 -65 -36 -8 2 -33 34 -55 71 -22 37 -41 62 -43
55 -1 -7 6 -44 17 -81 21 -76 18 -81 -41 -75 -31 3 -34 7 -50 58 -9 30 -21 89
-25 130 l-9 75 -18 -40 c-14 -31 -17 -57 -14 -112 5 -79 8 -77 -47 -33 -11 9
-64 24 -117 33 -102 18 -257 64 -344 102 -49 22 -53 26 -74 86 -31 89 -38 270
-16 397 55 318 281 764 589 1167 l77 99 -60 22 c-33 12 -67 27 -75 34 -14 12
-13 16 7 37 37 40 116 95 203 141 82 44 70 48 -20 8 -45 -21 -76 -43 -186
-135 l-36 -30 -27 28 -27 28 50 32 c63 41 200 99 252 107 22 4 41 10 44 14 2
4 -21 3 -53 -2 -62 -9 -176 -59 -246 -107 -25 -17 -47 -31 -50 -31 -5 0 -36
54 -36 63 0 9 98 47 174 67 42 12 114 25 159 29 l82 8 -67 2 c-102 2 -209 -25
-344 -85 -17 -7 -33 95 -36 216 -1 97 1 110 28 170 16 36 55 100 87 143 l58
78 -18 47 c-14 38 -17 82 -17 239 0 106 3 195 7 199 26 27 183 -111 299 -263
65 -85 73 -92 97 -85 43 12 143 6 182 -11 l37 -15 11 57 c19 96 109 226 219
316 30 25 58 45 62 45 5 0 18 -28 29 -62z m-1133 -158 c23 0 24 -2 24 -77 0
-43 5 -106 10 -140 l10 -62 -37 -53 -38 -54 3 130 c2 86 -1 154 -11 199 -12
59 -12 67 0 62 8 -3 26 -5 39 -5z m1854 -612 c38 -23 60 -71 63 -139 2 -35 16
-108 30 -161 55 -206 75 -496 48 -711 -26 -204 -102 -429 -203 -599 -49 -82
-68 -99 -68 -59 0 10 -13 64 -29 120 l-28 102 38 98 c80 209 120 408 120 605
0 222 -46 381 -161 551 -53 77 -61 95 -58 129 2 28 10 44 28 58 49 36 165 39
220 6z m-1870 -477 c17 -28 49 -65 69 -84 l39 -35 -85 -123 c-104 -153 -193
-299 -272 -449 l-61 -115 0 77 c0 71 3 80 35 130 51 76 86 194 93 307 5 93 6
96 48 153 41 57 94 156 94 177 0 19 7 12 40 -38z m-3819 29 c68 -37 62 -167
-11 -205 -81 -42 -170 15 -170 107 0 18 4 38 8 44 10 15 48 35 97 50 51 16 52
16 76 4z m779 -16 c13 -33 13 -101 0 -109 -18 -11 -50 34 -50 69 0 67 31 91
50 40z m-5837 -571 c88 -121 135 -246 140 -370 2 -39 8 -77 15 -85 28 -34 43
-132 40 -261 -3 -112 -1 -130 14 -138 20 -11 140 -169 221 -291 l58 -86 77 -7
c42 -4 140 -15 217 -26 428 -61 691 -174 770 -330 37 -71 33 -98 -19 -136 -57
-43 -194 -106 -281 -129 -56 -15 -106 -19 -250 -19 -164 1 -189 3 -285 28
-118 31 -240 78 -374 143 -49 24 -98 44 -109 44 -35 0 -201 61 -276 101 -192
103 -303 240 -348 428 -20 87 -12 284 16 395 12 43 33 130 47 193 52 235 141
445 226 539 28 30 54 54 58 54 5 0 24 -21 43 -47z"/>
<path d="M7413 9178 c-12 -6 -27 -23 -34 -39 -25 -63 37 -125 100 -100 44 19
74 100 31 86 -27 -9 -50 11 -50 41 0 26 -12 29 -47 12z"/>
<path d="M6436 9135 c-59 -59 6 -157 83 -125 32 13 57 60 47 86 -5 13 -9 15
-18 6 -27 -27 -78 -7 -78 30 0 22 -13 23 -34 3z"/>
<path d="M4526 7439 c24 -40 78 -79 110 -79 15 0 40 -16 63 -39 65 -65 266
-150 293 -123 18 18 -3 54 -86 140 -105 110 -136 124 -285 130 l-114 5 19 -34z"/>
<path d="M3515 7423 c-79 -12 -104 -24 -149 -74 -41 -45 -72 -109 -90 -181 -6
-27 -5 -28 31 -28 55 0 117 35 175 100 l52 58 50 -19 c81 -32 141 -42 180 -29
48 15 52 36 18 79 -53 66 -173 109 -267 94z"/>
<path d="M3483 7165 c-123 -34 -211 -105 -257 -206 -65 -141 -94 -372 -62
-479 27 -91 86 -140 166 -140 67 1 191 25 241 48 65 29 249 214 284 286 26 54
28 65 28 184 -1 152 -23 239 -73 287 -31 30 -33 30 -153 32 -82 2 -139 -2
-174 -12z m273 -281 c79 -52 68 -176 -19 -217 -68 -33 -152 -11 -188 47 -30
48 -24 72 24 107 40 30 133 79 150 79 4 0 19 -7 33 -16z"/>
<path d="M3640 6847 c-52 -26 -62 -104 -19 -143 13 -11 36 -19 59 -19 45 0 76
24 85 67 7 31 -7 59 -19 39 -10 -15 -51 -14 -64 2 -6 6 -12 24 -14 39 -3 26
-5 27 -28 15z"/>
<path d="M4417 7096 c-84 -26 -107 -40 -107 -65 0 -14 17 -16 128 -18 148 -2
260 -26 335 -73 54 -34 97 -40 97 -13 0 9 -11 36 -25 59 -21 36 -39 50 -98 78
-128 61 -206 68 -330 32z"/>
<path d="M4469 6955 c-72 -39 -55 -151 26 -171 53 -13 115 38 115 96 0 21 -14
27 -25 10 -9 -15 -51 -12 -65 5 -7 8 -10 28 -8 45 5 33 -4 36 -43 15z"/>
<path d="M3075 6904 c-31 -140 -112 -359 -171 -460 l-24 -41 31 -74 c46 -112
69 -206 69 -283 l0 -69 25 23 c48 45 70 107 68 195 0 45 -8 99 -17 124 -16 42
-15 47 9 116 32 94 44 232 33 376 -5 62 -10 115 -13 117 -2 2 -7 -9 -10 -24z"/>
<path d="M4093 6685 c-35 -15 -119 -88 -134 -116 -7 -14 7 -10 63 16 64 29 96
39 210 62 23 4 109 -17 178 -44 11 -4 10 0 -4 15 -10 12 -51 35 -91 52 -82 34
-166 40 -222 15z"/>
<path d="M4170 6270 c-87 -9 -110 -17 -165 -57 -42 -31 -97 -122 -110 -180 -8
-40 11 -135 37 -186 35 -70 110 -79 184 -22 19 15 42 24 50 21 20 -7 64 -103
64 -139 0 -94 -104 -183 -273 -232 -40 -12 -73 -15 -104 -10 -66 10 -210 87
-309 167 -48 38 -84 62 -80 53 3 -9 29 -50 58 -91 87 -128 238 -252 349 -291
45 -15 89 -12 194 14 109 26 120 30 174 58 51 25 66 28 245 37 206 10 253 20
332 69 129 82 188 157 186 235 -3 77 -33 123 -46 71 -8 -34 -81 -113 -129
-141 -45 -26 -222 -76 -269 -76 -69 0 -146 63 -168 137 -7 21 -14 73 -17 117
l-6 78 25 -16 c32 -21 92 -23 114 -5 49 40 80 199 51 256 -56 107 -189 153
-387 133z"/>
<path d="M4696 6044 c-9 -8 -16 -19 -16 -24 0 -11 29 -40 40 -40 11 0 40 29
40 40 0 11 -29 40 -40 40 -5 0 -16 -7 -24 -16z"/>
<path d="M3630 5966 c-27 -33 18 -72 48 -42 13 13 14 20 6 34 -15 23 -38 26
-54 8z"/>
<path d="M4826 5934 c-9 -8 -16 -22 -16 -29 0 -18 27 -45 45 -45 18 0 45 27
45 45 0 18 -27 45 -45 45 -7 0 -21 -7 -29 -16z"/>
<path d="M4676 5894 c-9 -8 -16 -19 -16 -24 0 -11 29 -40 40 -40 11 0 40 29
40 40 0 11 -29 40 -40 40 -5 0 -16 -7 -24 -16z"/>
<path d="M3720 5824 c-11 -12 -10 -18 3 -32 16 -15 18 -15 34 0 13 14 14 20 3
32 -7 9 -16 16 -20 16 -4 0 -13 -7 -20 -16z"/>
<path d="M8435 6626 l-30 -14 52 -1 c67 -1 164 -32 211 -67 56 -42 151 -134
183 -178 l29 -39 0 39 c0 50 -38 130 -81 171 -19 17 -65 46 -104 64 -56 27
-84 33 -150 36 -55 2 -89 -1 -110 -11z"/>
<path d="M7385 6471 c-115 -53 -226 -251 -266 -474 -23 -127 18 -363 89 -506
38 -79 121 -177 177 -210 43 -25 44 -19 5 25 -61 69 -104 180 -121 312 -6 48
-22 119 -35 158 -53 160 -40 306 46 479 27 55 72 129 100 163 28 35 50 65 48
67 -2 2 -21 -4 -43 -14z"/>
<path d="M8365 6370 c-32 -12 -42 -30 -55 -98 -18 -88 -8 -181 23 -234 29 -50
194 -212 226 -223 16 -5 32 2 61 25 84 67 140 150 140 210 0 77 -143 265 -234
309 -44 22 -123 27 -161 11z m220 -184 c68 -29 95 -118 55 -183 -68 -112 -260
-64 -260 65 0 100 104 160 205 118z"/>
<path d="M8452 6133 c-41 -40 -42 -75 -3 -114 18 -17 40 -29 56 -29 33 0 85
50 85 82 0 30 -15 54 -24 39 -10 -15 -51 -14 -64 2 -5 6 -12 21 -14 32 -3 18
-6 17 -36 -12z"/>
<path d="M7447 6082 c-89 -96 -99 -152 -41 -248 53 -89 100 -131 166 -150 116
-33 153 17 143 190 -8 114 -17 153 -47 191 -28 35 -90 65 -136 65 -34 0 -45
-7 -85 -48z m178 -140 c29 -20 55 -68 55 -99 0 -53 -54 -103 -110 -103 -58 0
-110 50 -110 105 0 29 8 45 34 71 28 28 41 34 78 34 23 0 48 -4 53 -8z"/>
<path d="M7515 5895 c-14 -13 -25 -33 -25 -45 0 -29 44 -70 75 -70 31 0 75 41
75 70 0 17 -4 19 -25 14 -29 -7 -55 10 -55 37 0 26 -16 24 -45 -6z"/>
<path d="M8009 5501 c-71 -8 -121 -31 -150 -71 -28 -37 -61 -129 -66 -181 -4
-41 -2 -48 26 -72 34 -29 88 -47 138 -47 36 0 70 -36 98 -104 21 -50 14 -77
-30 -110 -71 -55 -97 -59 -188 -36 -112 28 -196 71 -269 138 -34 31 -58 50
-53 42 53 -95 189 -221 291 -271 61 -31 62 -31 68 -82 21 -157 75 -288 157
-382 88 -101 152 -144 245 -163 99 -21 226 30 289 116 60 83 68 133 69 432 l1
265 33 29 c45 39 113 136 153 217 32 66 33 67 68 62 45 -5 79 13 108 56 30 44
31 69 2 40 -27 -27 -89 -22 -158 14 l-49 25 -11 -57 c-17 -83 -58 -157 -127
-225 -93 -93 -159 -128 -249 -134 -86 -5 -112 6 -138 60 -32 69 -31 81 9 103
47 25 74 69 74 120 0 50 -48 155 -81 176 -56 37 -152 51 -260 40z m533 -961
c-8 -123 -12 -144 -36 -184 -38 -64 -93 -99 -166 -104 -78 -6 -127 19 -213
105 -92 93 -140 198 -161 353 l-6 45 52 13 c29 7 78 28 108 46 l55 35 7 -82
c7 -98 21 -155 54 -219 32 -63 45 -68 27 -10 -19 62 -29 255 -14 307 l10 40
103 1 c66 0 117 6 143 16 l40 15 3 -119 c1 -66 -1 -182 -6 -258z"/>
<path d="M10057 4578 c-54 -15 -97 -61 -97 -104 0 -107 78 -160 174 -120 75
31 95 103 54 186 -20 40 -27 45 -58 47 -19 1 -52 -3 -73 -9z m107 -80 c9 -12
16 -33 16 -46 0 -28 -42 -72 -69 -72 -18 0 -20 7 -20 70 l0 70 29 0 c18 0 34
-8 44 -22z m-101 -30 c2 -24 8 -54 12 -67 8 -22 6 -24 -21 -17 -56 13 -83 76
-48 110 30 30 52 20 57 -26z"/>
<path d="M10524 4571 c-30 -13 -58 -91 -51 -137 7 -44 22 -63 64 -81 51 -21
89 -16 124 15 27 24 33 37 37 84 4 50 2 58 -25 88 -24 27 -38 33 -79 36 -27 2
-59 0 -70 -5z m38 -56 c12 -5 12 -15 5 -54 -6 -26 -7 -56 -3 -67 7 -16 10 -14
21 16 8 19 14 47 14 63 1 30 7 32 45 17 35 -13 36 -61 1 -96 -22 -22 -33 -25
-67 -21 -69 8 -100 71 -62 125 16 23 23 26 46 17z"/>
<path d="M10270 4257 c0 -21 60 -107 75 -107 14 0 85 91 85 109 0 7 -28 11
-80 11 -60 0 -80 -3 -80 -13z"/>
<path d="M10332 4109 c-17 -26 -70 -49 -119 -50 l-38 -1 35 -8 c21 -5 51 -5
75 2 51 13 70 13 123 -1 31 -8 54 -8 83 -1 50 14 50 20 -1 13 -49 -7 -123 19
-136 47 -9 20 -9 20 -22 -1z"/>
<path d="M5731 3984 c-12 -15 -21 -35 -21 -46 0 -26 53 -78 80 -78 27 0 80 52
80 77 0 27 -25 59 -34 45 -11 -19 -45 -14 -58 8 -17 26 -22 25 -47 -6z"/>
<path d="M9252 1304 c-28 -19 -30 -74 -4 -97 40 -37 112 -6 112 47 0 27 -42
66 -69 66 -9 0 -27 -7 -39 -16z"/>
<path d="M2163 1276 c-34 -14 -113 -51 -175 -83 -175 -89 -233 -159 -264 -319
-17 -93 -20 -247 -5 -287 17 -43 107 -133 187 -186 179 -120 393 -163 474 -94
38 31 84 166 84 245 1 74 -20 96 -136 144 -49 21 -91 41 -94 46 -8 13 -48 9
-72 -8 -27 -19 -29 -64 -3 -88 16 -15 33 -16 123 -10 99 6 107 5 127 -15 37
-37 21 -127 -40 -212 -18 -25 -27 -29 -67 -29 -103 1 -293 96 -403 201 -56 54
-59 59 -59 105 0 61 17 175 32 229 18 60 96 130 224 203 137 76 169 88 270 97
81 8 104 17 104 41 0 22 -43 34 -148 39 -87 5 -104 3 -159 -19z"/>
<path d="M8345 1238 c-27 -21 -27 -22 -22 -112 3 -50 19 -145 35 -211 52 -212
57 -206 -64 -77 -134 142 -227 222 -259 222 -15 0 -30 -9 -39 -22 -36 -58 -28
-263 20 -522 31 -164 41 -186 88 -186 56 0 71 28 68 120 -1 43 -9 98 -18 122
-14 40 -54 244 -54 278 0 16 127 -118 199 -209 24 -31 68 -93 97 -138 57 -88
84 -105 130 -84 52 23 53 75 8 336 -14 76 -34 175 -45 220 -12 44 -23 116 -27
160 -4 65 -9 83 -28 102 -29 29 -54 29 -89 1z"/>
<path d="M11040 1241 c-87 -36 -206 -102 -275 -153 -91 -69 -110 -105 -119
-232 -8 -120 3 -146 70 -172 41 -16 54 -16 113 -5 112 22 228 25 255 8 31 -21
69 -83 62 -102 -10 -28 -123 -73 -341 -138 -49 -15 -68 -46 -53 -89 19 -54 62
-55 238 -7 109 29 127 37 208 92 91 62 112 97 94 160 -7 23 -17 73 -22 111
-13 91 -34 125 -95 156 -44 22 -65 25 -202 28 -122 4 -153 7 -153 18 0 19 42
84 72 111 29 27 166 91 210 99 66 11 77 14 92 30 22 21 20 67 -2 87 -25 22
-94 21 -152 -2z"/>
<path d="M5345 1203 c-98 -40 -165 -107 -165 -164 0 -69 43 -245 76 -310 37
-74 55 -169 74 -380 8 -90 14 -117 29 -133 28 -28 79 -25 104 5 18 22 19 34
12 129 l-7 104 44 -40 c125 -115 219 -152 254 -99 26 40 11 67 -80 144 -88 75
-166 154 -166 169 0 5 25 12 55 15 61 6 139 44 181 88 18 19 36 60 55 126 32
109 36 170 15 212 -21 40 -82 90 -146 120 -47 22 -71 25 -175 28 -95 3 -128 0
-160 -14z m290 -146 c17 -9 40 -24 53 -34 l22 -18 -18 -55 c-11 -30 -22 -71
-26 -91 -11 -59 -84 -102 -194 -115 l-60 -6 -28 53 c-26 52 -54 165 -54 220 0
18 10 31 38 47 33 20 48 22 137 19 69 -2 109 -8 130 -20z"/>
<path d="M7589 1210 c-109 -13 -152 -45 -164 -125 -10 -58 13 -471 29 -530 27
-102 72 -155 149 -176 23 -6 94 -12 157 -12 133 1 184 15 201 59 12 32 -3 79
-29 89 -10 4 -71 9 -137 12 -66 2 -131 9 -145 14 -36 14 -81 83 -96 145 -6 29
-9 55 -6 58 3 3 40 6 83 6 72 0 79 2 98 26 28 36 26 65 -5 95 -22 20 -36 24
-90 24 l-64 0 -5 40 c-2 22 -6 60 -7 85 l-3 44 40 8 c22 4 66 7 97 7 97 1 209
22 229 42 40 40 13 79 -62 90 -67 9 -183 9 -270 -1z"/>
<path d="M9706 1199 c-19 -15 -26 -30 -26 -54 0 -21 -6 -37 -17 -43 -14 -8
-18 -38 -25 -193 -6 -119 -17 -230 -33 -315 -14 -72 -25 -145 -25 -162 0 -53
53 -86 94 -59 23 15 34 44 59 162 l14 60 90 11 c50 6 103 14 118 18 25 6 28 2
70 -88 56 -120 95 -144 145 -91 32 34 26 61 -68 260 -97 209 -151 301 -243
415 -87 109 -104 118 -153 79z m179 -363 c29 -52 35 -70 25 -76 -16 -10 -120
-24 -127 -17 -3 3 5 49 17 102 25 108 20 108 85 -9z"/>
<path d="M8702 1190 c-76 -11 -143 -25 -157 -34 -35 -23 -44 -80 -17 -114 17
-23 26 -27 68 -25 27 1 68 0 90 -3 40 -5 42 -7 53 -49 6 -25 29 -85 51 -134
22 -50 49 -128 60 -173 27 -112 101 -264 135 -280 22 -10 30 -8 53 9 15 11 28
29 30 41 2 11 -17 65 -42 119 -72 158 -117 299 -123 384 l-6 75 88 17 c177 35
240 74 219 134 -5 15 -21 33 -34 40 -36 18 -306 14 -468 -7z"/>
<path d="M10180 1170 c-11 -11 -20 -30 -20 -42 0 -41 58 -351 84 -453 14 -54
26 -123 26 -153 0 -93 36 -133 118 -132 65 1 261 46 282 65 24 22 26 62 4 94
-16 23 -21 23 -118 19 -99 -5 -101 -5 -126 22 -40 43 -95 267 -120 490 -6 58
-13 78 -30 92 -29 24 -75 23 -100 -2z"/>
<path d="M4653 1100 c-111 -57 -149 -97 -163 -169 -7 -31 -22 -91 -36 -134
-18 -60 -24 -101 -24 -174 0 -157 30 -196 228 -299 l94 -49 171 0 c191 0 197
1 276 72 53 47 61 93 22 125 -25 20 -76 24 -86 7 -4 -6 -25 -24 -47 -40 -40
-28 -44 -29 -164 -29 l-122 0 -83 42 c-45 24 -98 57 -117 75 l-35 33 6 83 c3
45 12 99 21 119 9 21 21 72 27 114 l12 76 66 43 c61 41 73 45 165 55 99 10
126 20 126 46 0 24 -40 35 -148 41 l-107 5 -82 -42z"/>
<path d="M6715 1073 c-39 -10 -45 -23 -45 -102 0 -150 18 -294 49 -398 17 -56
31 -124 31 -151 0 -91 36 -99 233 -52 209 49 284 97 314 199 20 70 13 164 -17
226 -30 62 -194 226 -258 259 -47 24 -61 26 -169 25 -65 -1 -127 -4 -138 -6z
m247 -129 c23 -16 77 -69 120 -119 l78 -89 0 -72 c0 -57 -4 -74 -19 -88 -21
-19 -140 -60 -207 -70 l-40 -7 -32 108 c-17 59 -38 140 -47 180 -8 40 -26 100
-40 134 l-25 62 86 -6 c72 -4 91 -9 126 -33z"/>
<path d="M6449 1066 c-8 -8 -228 -37 -347 -44 -119 -8 -124 -10 -154 -39 -35
-36 -56 -104 -65 -211 -5 -65 -4 -75 15 -95 18 -19 22 -40 28 -122 8 -121 29
-176 76 -201 28 -15 69 -18 288 -22 249 -4 255 -3 278 17 29 28 30 81 1 107
-19 17 -42 19 -260 22 l-239 4 0 77 0 78 61 17 c33 10 69 26 80 37 25 25 24
74 -2 100 -20 20 -28 21 -102 15 l-80 -7 7 32 c3 17 6 35 6 39 0 4 48 10 108
14 171 10 352 43 379 68 30 28 29 63 -2 93 -21 22 -63 33 -76 21z"/>
<path d="M3780 998 c-119 -9 -195 -11 -285 -6 -22 1 -83 -3 -135 -10 -82 -11
-98 -16 -118 -39 -27 -30 -23 -68 10 -95 17 -15 40 -18 133 -18 l113 0 16 -40
c11 -29 16 -73 16 -155 0 -161 42 -350 84 -377 6 -4 25 -8 41 -8 63 0 79 35
71 149 -8 102 -51 377 -65 414 -13 33 -9 34 131 42 189 10 208 17 208 80 0 38
-38 76 -74 74 -11 -1 -77 -6 -146 -11z"/>
<path d="M9319 973 c-6 -16 -17 -39 -24 -53 -17 -34 -6 -110 46 -314 43 -171
56 -201 89 -211 32 -10 79 13 87 44 9 37 -21 175 -73 328 -24 72 -44 146 -44
163 0 45 -17 70 -46 70 -17 0 -28 -8 -35 -27z"/>
<path d="M2837 876 c-49 -15 -81 -37 -98 -68 -16 -30 -49 -310 -49 -418 0
-112 8 -134 58 -159 29 -15 274 -58 382 -66 78 -6 87 -5 113 15 20 16 27 30
27 55 0 49 -26 61 -155 74 -156 16 -183 25 -201 66 -8 19 -14 57 -14 85 l0 50
120 0 c107 0 122 2 140 20 25 25 26 60 0 87 -24 27 -119 38 -233 29 l-80 -7 7
38 c3 21 6 45 6 54 0 29 75 50 195 56 60 3 116 10 123 16 18 14 15 55 -7 66
-33 18 -280 23 -334 7z"/>
</g>
</svg>
